Coordinates
version=1
nRows=29
nColumns=22
inDegrees=yes

Units are S.I. units (second, meters, Newtons, ...)
If the header above contains a line with 'inDegrees', this indicates whether rotational values are in degrees (yes) or radians (no).

endheader
time	pelvis_tilt	pelvis_list	pelvis_rotation	pelvis_tx	pelvis_ty	pelvis_tz	hip_flexion_r	hip_adduction_r	hip_rotation_r	knee_angle_r	ankle_angle_r	subtalar_angle_r	hip_flexion_l	hip_adduction_l	hip_rotation_l	knee_angle_l	ankle_angle_l	subtalar_angle_l	lumbar_extension	lumbar_bending	lumbar_rotation
      3.79000000	      3.35978325	      0.65348026	      2.66604309	      0.63968319	      0.98406500	     -0.27563393	     23.17571111	      0.18673735	     -4.22337893	    -16.92719603	     -3.90801705	      8.60006576	    -10.43714082	      2.25141302	     -2.97571394	    -23.81493680	     18.92567585	      2.16459264	    -13.47876664	     -0.53981648	     -4.50978982
      3.80000000	      3.49628865	      0.19530380	      2.57624869	      0.64958194	      0.98420023	     -0.27391973	     23.14399635	      0.83037627	     -4.01774138	    -17.98885604	     -4.62145733	      7.62185655	    -10.33588336	      1.62672752	     -2.95784563	    -25.35041666	     18.37294376	      2.83718128	    -13.34330230	     -0.04039197	     -4.32393319
      3.81000000	      3.65407073	     -0.25394763	      2.47265266	      0.65946941	      0.98455911	     -0.27222776	     23.05508975	      1.45901257	     -3.90761681	    -19.02960574	     -5.08554028	      6.46732351	    -10.19763796	      1.01926544	     -2.90362067	    -26.96817922	     17.59404755	      3.54906100	    -13.23799183	      0.45014045	     -4.11162144
      3.82000000	      3.83522892	     -0.67870044	      2.36558817	      0.66926910	      0.98511093	     -0.27056422	     22.89237677	      2.06053165	     -3.85139497	    -20.01602437	     -5.30912344	      5.26583982	    -10.01093756	      0.43036255	     -2.86216513	    -28.68066459	     16.63311771	      4.25022279	    -13.17705165	      0.91554217	     -3.92119878
      3.83000000	      4.02829576	     -1.07067417	      2.27163185	      0.67895973	      0.98583503	     -0.26894834	     22.64667233	      2.62508840	     -3.83094853	    -20.90694584	     -5.30819057	      4.10229479	     -9.77109778	     -0.13558731	     -2.81222429	    -30.46230154	     15.47175858	      4.92688868	    -13.14671558	      1.34496719	     -3.75444760
      3.84000000	      4.22158890	     -1.42246849	      2.20919836	      0.68850854	      0.98670536	     -0.26739694	     22.31721056	      3.14156486	     -3.83833664	    -21.67225756	     -5.11072828	      3.04257282	     -9.46751629	     -0.67798555	     -2.74586935	    -32.29719798	     14.11860369	      5.56155908	    -13.13470207	      1.72850685	     -3.62311447
      3.85000000	      4.40405044	     -1.72925648	      2.19196563	      0.69787426	      0.98769277	     -0.26593276	     21.91532023	      3.59857968	     -3.87611295	    -22.30043394	     -4.74836247	      2.13934380	     -9.08759406	     -1.19747200	     -2.66400712	    -34.17470143	     12.59906391	      6.12845514	    -13.13034838	      2.06239848	     -3.54225652
      3.86000000	      4.56277974	     -2.00895664	      2.24800961	      0.70702294	      0.98876327	     -0.26460346	     21.45481071	      4.00104775	     -3.97838981	    -22.77849067	     -4.28274446	      1.45853184	     -8.60735838	     -1.71973220	     -2.55111365	    -36.10191059	     10.96280552	      6.57479478	    -13.11825852	      2.37342650	     -3.53510109
      3.87000000	      4.69707680	     -2.21183782	      2.32285103	      0.71594666	      0.98989910	     -0.26332967	     20.95940934	      4.31805941	     -4.07455337	    -23.14753094	     -3.68230223	      0.85597302	     -8.05279193	     -2.17794379	     -2.44169941	    -38.03417871	      9.22899857	      7.00343634	    -13.09826422	      2.58868518	     -3.52752617
      3.88000000	      4.79647029	     -2.39811616	      2.47134717	      0.72460890	      0.99106368	     -0.26220841	     20.44176437	      4.58744400	     -4.24042172	    -23.39066143	     -3.06012262	      0.45489094	     -7.38324205	     -2.64718707	     -2.30871053	    -40.01187453	      7.48416440	      7.30101791	    -13.05881002	      2.79466467	     -3.58189888
      3.89000000	      4.86116208	     -2.55950445	      2.66703730	      0.73300417	      0.99223045	     -0.26120184	     19.92010699	      4.81201673	     -4.44283394	    -23.53724905	     -2.42898037	      0.17209531	     -6.60854003	     -3.10988451	     -2.16978909	    -42.01801790	      5.77316384	      7.51015697	    -13.00057600	      2.97539619	     -3.66254697
      3.90000000	      4.92632789	     -2.71429581	      2.89574794	      0.74114740	      0.99344467	     -0.26031225	     19.36200693	      5.01740778	     -4.67197708	    -23.58964810	     -1.84131426	      0.01587429	     -5.77851304	     -3.57835889	     -2.03476656	    -44.02963707	      4.11724875	      7.61250288	    -12.96583832	      3.15548375	     -3.72678069
      3.91000000	      4.92820167	     -2.85115948	      3.14364371	      0.74901846	      0.99454866	     -0.25948966	     18.86344693	      5.19834323	     -4.89917988	    -23.59574302	     -1.26701401	     -0.14180808	     -4.81064907	     -4.04600708	     -1.93823219	    -46.06587223	      2.60078514	      7.70047944	    -12.88175668	      3.31292665	     -3.79899774
      3.92000000	      4.90853083	     -2.98595977	      3.38150410	      0.75665553	      0.99560698	     -0.25868028	     18.37893716	      5.38613256	     -5.09497505	    -23.55347672	     -0.73277665	     -0.26825706	     -3.77549201	     -4.52528314	     -1.89887658	    -48.07575417	      1.24588487	      7.75889708	    -12.79598940	      3.46038999	     -3.81624023
      3.93000000	      4.84273404	     -3.11116702	      3.59331778	      0.76405222	      0.99654702	     -0.25785491	     17.95328278	      5.57753237	     -5.22843663	    -23.49707461	     -0.21473440	     -0.39652432	     -2.64696408	     -5.01797161	     -1.95470326	    -50.05124831	      0.13032209	      7.81762206	    -12.68302121	      3.58847552	     -3.79897248
      3.94000000	      4.81286767	     -3.27220675	      3.77913827	      0.77125353	      0.99752608	     -0.25698246	     17.47559736	      5.82651741	     -5.33234703	    -23.37688537	      0.21091499	     -0.49321597	     -1.53847129	     -5.57065217	     -2.07322021	    -51.93187963	     -0.71184909	      7.85928807	    -12.63626109	      3.74579539	     -3.65989398
      3.95000000	      4.76312369	     -3.43650295	      3.91660958	      0.77824098	      0.99842503	     -0.25601835	     17.03101345	      6.10236223	     -5.35840291	    -23.24751829	      0.61408423	     -0.59949622	     -0.39344391	     -6.16090302	     -2.30507117	    -53.70321172	     -1.20688495	      7.86425604	    -12.59321770	      3.89077870	     -3.44465017
      3.96000000	      4.70540119	     -3.60893943	      4.00360596	      0.78500473	      0.99926795	     -0.25494767	     16.60610492	      6.40942154	     -5.31659724	    -23.10462494	      0.97125864	     -0.71095122	      0.76335604	     -6.79199642	     -2.63692138	    -55.33089335	     -1.34059646	      7.75485440	    -12.57022617	      4.02756762	     -3.14405003
      3.97000000	      4.63855396	     -3.78648735	      4.03913237	      0.79153256	      1.00005562	     -0.25377612	     16.20404114	      6.74102603	     -5.21158870	    -22.95210523	      1.27765625	     -0.82835418	      1.92364216	     -7.45456108	     -3.05614894	    -56.79011393	     -1.14056670	      7.42756545	    -12.56818966	      4.15397547	     -2.75889137
      3.98000000	      4.52839482	     -3.94225957	      4.03035476	      0.79779788	      1.00073548	     -0.25253370	     15.87462900	      7.05679011	     -5.06918120	    -22.82029938	      1.57380199	     -0.97877868	      3.11909931	     -8.10487092	     -3.54051413	    -58.06062570	     -0.70829323	      6.56290178	    -12.54849919	      4.23830406	     -2.30655253
      3.99000000	      4.46703044	     -4.11329552	      3.97329725	      0.80385636	      1.00148181	     -0.25122444	     15.48122795	      7.40782892	     -4.87164161	    -22.63830962	      1.80295243	     -1.09721561	      4.22176575	     -8.77503929	     -4.07212464	    -59.10260799	     -0.02314895	      5.54384524	    -12.61164885	      4.32972692	     -1.74679436
      4.00000000	      4.40013646	     -4.25678138	      3.87483591	      0.80962350	      1.00218565	     -0.24992438	     15.11403565	      7.73075724	     -4.63529986	    -22.46942445	      2.01317163	     -1.22049588	      5.30034550	     -9.39050344	     -4.61683131	    -59.92936193	      0.80053006	      4.29282683	    -12.70448470	      4.39234863	     -1.16663688
      4.01000000	      4.31650202	     -4.37893683	      3.75014783	      0.81516993	      1.00286706	     -0.24864107	     14.76135505	      8.02516154	     -4.40246142	    -22.27386520	      2.18496759	     -1.34366926	      6.35482206	     -9.94726832	     -5.14922293	    -60.52035269	      1.66461522	      3.01509316	    -12.79831112	      4.42286217	     -0.52763592
      4.02000000	      4.22381206	     -4.47157429	      3.61521914	      0.82045482	      1.00350934	     -0.24743827	     14.43240453	      8.27537382	     -4.17135163	    -22.08573886	      2.34304719	     -1.47173988	      7.38874094	    -10.41155980	     -5.62041983	    -60.89840125	      2.51804626	      1.81933311	    -12.90297014	      4.42632538	      0.11316201
      4.03000000	      4.10877196	     -4.53729359	      3.48009183	      0.82553253	      1.00411749	     -0.24634717	     14.12416708	      8.47772350	     -3.97388108	    -21.87459467	      2.48987125	     -1.60145735	      8.40759615	    -10.77593927	     -6.01926245	    -61.05431284	      3.30738398	      0.81496040	    -12.99342406	      4.40690345	      0.75641242
      4.04000000	      3.96860872	     -4.57658727	      3.34819356	      0.83045677	      1.00468959	     -0.24538583	     13.83570598	      8.62969861	     -3.82258917	    -21.63873076	      2.63372558	     -1.72606218	      9.40699639	    -11.03803254	     -6.34846525	    -60.99270015	      4.01601808	      0.07457931	    -13.05263550	      4.36809831	      1.38049400
      4.05000000	      3.82052721	     -4.60602866	      3.20848899	      0.83520737	      1.00524139	     -0.24452466	     13.55608074	      8.75830079	     -3.68206007	    -21.38700829	      2.77130975	     -1.81840064	     10.36893914	    -11.21636554	     -6.60868012	    -60.73236300	      4.63063159	     -0.26530427	    -13.10446780	      4.32530615	      2.00963288
      4.06000000	      3.64370182	     -4.59223596	      3.08815696	      0.83975756	      1.00573595	     -0.24385496	     13.32396034	      8.81590435	     -3.57530303	    -21.15220554	      2.92266695	     -1.90591711	     11.31959217	    -11.25621242	     -6.76709579	    -60.28258428	      5.17665912	     -0.47436391	    -13.12508252	      4.25186878	      2.59448293
      4.07000000	      3.46158560	     -4.56356841	      2.95737112	      0.84416835	      1.00621567	     -0.24330390	     13.10431231	      8.84531953	     -3.47817252	    -20.91663249	      3.07990190	     -1.96046431	     12.21337893	    -11.21847797	     -6.88640727	    -59.64731509	      5.66733248	     -0.45609642	    -13.13232856	      4.17313328	      3.15424939
